<svg width="928.7934" height="255.7934" xmlns="http://www.w3.org/2000/svg" preserveAspectRatio="none">

 <g>
  <title>Layer 1</title>
  <g transform="matrix(0.54913 0 0 0.54913 28.6302 7.2605)" stroke="null" y="16.1033" x="63.5" id="svg_36">
   <svg stroke="null" id="svg_2" viewBox="20 20 160 160" preserveAspectRatio="none" version="1.1" y="103.5143" x="245.60625" height="221.7934" width="221.7934">
    <g stroke="null" id="svg_3" fill="#5DDADB" class="icon1a8xWfIPZ-M">
     <g stroke="null" id="svg_4">
      <path stroke="null" id="svg_5" d="m20,20l0,160l160,0l0,-160l-160,0zm58.9,2.3c-0.4,12.2 1.2,24.7 5,37c13.5,43.6 51.1,73 93.6,78.2l0,0.8c-19,-2.2 -37.4,-9.3 -52.9,-20.5c-19.6,-14.2 -33.7,-34 -40.9,-57.1c-3.9,-12.6 -5.4,-25.6 -4.8,-38.4zm47.8,92.3c-19.2,-14 -33.1,-33.4 -40.2,-56.2c-3.7,-11.9 -5.3,-24.1 -4.8,-36.2l0.1,0c-0.2,11.5 1.3,23.2 4.9,34.8c13.1,42.4 49.5,71.3 90.8,76.8l0,0.8c-18.2,-2.2 -35.9,-9.1 -50.8,-20zm50.8,-1.9c-13.6,-2.9 -26.7,-8.6 -38,-16.8c-17.4,-12.6 -29.9,-30.2 -36.3,-50.8c-2.3,-7.5 -3.7,-15.2 -4.2,-22.9l0.5,0c0.6,7.1 1.9,14.3 4.1,21.4c11,35.5 40,60.5 73.9,67.9l0,1.2zm-76.7,-66.8c11.3,36.7 41.6,62.3 76.7,69.4l0,1.1c-14.4,-2.8 -28.2,-8.7 -40.1,-17.4c-17.7,-12.9 -30.5,-30.7 -37,-51.7c-2.6,-8.3 -4,-16.7 -4.4,-25.1l0.4,0c0.5,7.9 2,15.8 4.4,23.7zm-2.8,2.2c11.7,37.8 43.2,64.1 79.5,71l0,1.1c-15.2,-2.7 -29.7,-8.9 -42.3,-18c-18,-13.1 -31,-31.3 -37.6,-52.6c-2.8,-9 -4.3,-18.2 -4.5,-27.3l0.4,0c0.3,8.5 1.8,17.2 4.5,25.8zm-2.9,2.3c12,39 44.7,65.9 82.3,72.5l0,1c-15.9,-2.7 -31.3,-9 -44.4,-18.5c-18.2,-13.4 -31.4,-31.9 -38.1,-53.6c-3,-9.7 -4.5,-19.7 -4.7,-29.6l0.3,0c0.3,9.4 1.8,18.8 4.6,28.2zm-2.8,2.2c12.4,40.1 46.3,67.7 85.2,73.9l0,0.9c-16.7,-2.6 -32.8,-9.1 -46.5,-19c-18.7,-13.5 -32.1,-32.3 -38.9,-54.4c-3.2,-10.4 -4.8,-21.1 -4.7,-31.8l0.2,0c0.1,10.1 1.6,20.3 4.7,30.4zm-2.8,2.2c12.8,41.3 47.9,69.5 88,75.4l0,0.9c-17.5,-2.4 -34.3,-9.2 -48.7,-19.6c-18.9,-13.7 -32.6,-32.9 -39.5,-55.3c-3.5,-11.2 -5,-22.6 -4.8,-34l0.2,0c-0.1,10.8 1.5,21.8 4.8,32.6zm88,54.2c-12.8,-2.9 -25.1,-8.4 -35.8,-16.2c-17.1,-12.4 -29.4,-29.7 -35.7,-49.9c-2.1,-6.8 -3.4,-13.7 -4,-20.7l0.6,0c0.6,6.4 1.9,12.8 3.9,19.2c10.6,34.4 38.4,58.6 71.1,66.4l0,1.2l-0.1,0zm-33.7,-19.3c-16.8,-12.2 -28.9,-29.1 -35,-49c-1.9,-6.1 -3.1,-12.2 -3.8,-18.4l0.6,0c0.7,5.6 1.9,11.3 3.6,16.9c10.3,33.2 36.9,56.8 68.3,64.8l0,1.3c-12.1,-3 -23.6,-8.3 -33.7,-15.6zm33.7,-65.2c-0.8,-0.7 -1.5,-1.5 -2.2,-2.3l2.2,0l0,2.3zm0,2.4l0,2.8c-2.6,-2.3 -5,-4.7 -7.1,-7.4l2.6,0c1.4,1.6 2.9,3.1 4.5,4.6zm0,5l0,2.7c-4.5,-3.6 -8.4,-7.8 -11.8,-12.3l2.5,0c2.8,3.5 5.9,6.7 9.3,9.6zm0,4.9l0,2.5c-6.4,-4.8 -11.9,-10.5 -16.2,-17.1l2.3,0c3.9,5.7 8.6,10.6 13.9,14.6zm0,4.8l0,2.4c-0.5,-0.4 -1.1,-0.7 -1.6,-1.1c-7.7,-5.6 -14,-12.6 -18.8,-20.6l2.1,0c4.8,7.6 11.1,14.2 18.3,19.3zm0,4.7l0,2.3c-1.3,-0.8 -2.5,-1.6 -3.8,-2.5c-8.7,-6.4 -15.7,-14.5 -20.7,-23.8l1.9,0c5.7,9.8 13.5,17.9 22.6,24zm0,4.5l0,2.2c-2,-1.2 -4,-2.5 -5.9,-3.8c-9.7,-7.1 -17.4,-16.2 -22.5,-26.9l1.8,0c6.2,12 15.5,21.7 26.6,28.5zm0,4.4l0,2.1c-2.8,-1.5 -5.5,-3.2 -8,-5.1c-10.7,-7.8 -18.9,-18 -24.2,-30l1.7,0c6.6,14.3 17.5,25.6 30.5,33zm0,4.3l0,2c-3.5,-1.8 -7,-3.9 -10.2,-6.2c-11.7,-8.5 -20.5,-19.8 -25.8,-33.1l1.6,0c7,16.5 19.4,29.4 34.4,37.3zm0,4.3l0,1.9c-4.3,-2 -8.4,-4.5 -12.3,-7.3c-12.6,-9.2 -22,-21.6 -27.3,-36.2l1.5,0c7.3,18.8 21.1,33.2 38.1,41.6zm0,4.2l0,1.9c-5.1,-2.3 -9.9,-5 -14.5,-8.3c-13.6,-9.8 -23.5,-23.4 -28.7,-39.3l1.4,0c7.4,20.9 22.9,37 41.8,45.7zm0,4.2l0,1.8c-5.9,-2.4 -11.4,-5.5 -16.6,-9.3c-14.3,-10.4 -24.7,-24.9 -29.9,-41.8c-0.1,-0.2 -0.1,-0.4 -0.2,-0.6l1.3,0c7.5,23.2 24.5,40.9 45.4,49.9zm-48.5,-48.7c7.7,25 26.1,43.7 48.5,52.8l0,1.7c-6.6,-2.6 -13,-6 -18.7,-10.2c-14.6,-10.6 -25.2,-25.4 -30.5,-42.7c-0.3,-1 -0.6,-1.9 -0.8,-2.9l1.2,0c0,0.5 0.1,0.9 0.3,1.3zm-2.9,2.3c8.1,26.2 27.6,45.6 51.4,54.6l0,1.6c-7.4,-2.7 -14.5,-6.4 -20.9,-11.1c-14.9,-10.8 -25.7,-25.9 -31.2,-43.6c-0.5,-1.7 -1,-3.4 -1.4,-5.1l1.1,0c0.4,1.2 0.7,2.4 1,3.6zm-2.8,2.2c8.4,27.3 29.1,47.5 54.2,56.4l0,1.6c-8.2,-2.8 -16,-6.8 -23,-11.9c-15.2,-11.1 -26.2,-26.5 -31.8,-44.5c-0.7,-2.4 -1.4,-4.9 -1.9,-7.3l1,0c0.4,1.9 0.9,3.8 1.5,5.7zm-2.8,2.2c8.8,28.5 30.7,49.4 57,58.1l0,1.5c-9,-2.9 -17.5,-7.1 -25.1,-12.7c-15.5,-11.3 -26.8,-27 -32.5,-45.4c-1,-3.2 -1.8,-6.3 -2.4,-9.5l0.9,0c0.6,2.7 1.3,5.4 2.1,8zm-2.8,2.3c9.2,29.7 32.2,51.3 59.8,59.9l0,1.4c-9.7,-2.9 -19,-7.4 -27.3,-13.4c-15.9,-11.5 -27.3,-27.5 -33.1,-46.3c-1.2,-3.9 -2.1,-7.8 -2.8,-11.8l0.9,0c0.6,3.4 1.4,6.8 2.5,10.2zm-2.8,2.2c9.5,30.9 33.8,53.1 62.6,61.5l0,1.4c-10.5,-2.9 -20.6,-7.7 -29.4,-14.2c-16.2,-11.7 -27.8,-28.1 -33.7,-47.2c-1.4,-4.6 -2.5,-9.3 -3.2,-14l0.8,0c0.6,4.2 1.6,8.4 2.9,12.5zm-2.8,2.2c9.9,32 35.3,55 65.4,63.2l0,1.3c-11.3,-3 -22.1,-8 -31.6,-14.9c-16.5,-12 -28.4,-28.6 -34.4,-48.1c-1.7,-5.3 -2.8,-10.8 -3.5,-16.2l0.7,0c0.8,5 1.8,9.9 3.4,14.7zm-90.4,141.1l0,-155.7l40.6,0c-1.2,10.1 -1.1,20.5 0.3,30.9c1,-0.2 2,-0.3 3,-0.3c-0.5,-3.5 -0.8,-7 -1,-10.5c-0.4,-5.9 -0.3,-11.8 0.2,-17.6c-0.5,5.8 -0.6,11.7 -0.2,17.6c-0.1,-1.7 -0.1,-3.5 -0.1,-5.2c0,1.7 0.1,3.5 0.1,5.2c0.2,3.5 0.6,7 1.1,10.5c1,0 2,0 3,0.2c-0.8,-5.1 -1.3,-10.3 -1.4,-15.5c0.2,5.1 0.7,10.3 1.6,15.5c1.1,0.2 2.1,0.4 3.1,0.7c-1.3,-6.9 -1.9,-13.9 -1.9,-20.8c0.1,6.9 0.8,13.9 2.2,20.9c1.1,0.4 2.2,0.9 3.3,1.5c-1.9,-8.9 -2.8,-17.9 -2.6,-26.8c-0.1,8.9 0.9,18 3,27c1.3,0.8 2.5,1.8 3.6,2.8c-3,-11.3 -4.2,-22.9 -3.7,-34.4c0,-0.6 0.1,-1.2 0.1,-1.8c0,0.6 -0.1,1.2 -0.1,1.8c-0.4,11.6 1,23.4 4.3,35c2.2,2.4 3.8,5.4 4.5,8.9c0.4,1.7 0.5,3.3 0.4,4.9c16.5,38.4 52.3,63.9 92.2,68.3l0,0.7c-19.7,-2 -39,-9.3 -55.1,-21c-16.6,-12 -29.3,-28 -37.3,-46.7c-0.2,1.6 -0.6,3.1 -1.1,4.5c17.5,37.5 53.6,62.1 93.5,66.1l0,0.7c-20.5,-1.9 -40.5,-9.3 -57.2,-21.5c-16,-11.6 -28.4,-26.8 -36.6,-44.5c-0.5,1.1 -1.1,2.1 -1.7,3.1c18.2,37.7 55,62.2 95.5,65.7l0,0.6c-21.2,-1.7 -42,-9.3 -59.4,-21.9c-15.8,-11.5 -28.3,-26.5 -36.5,-43.9c-0.6,0.9 -1.3,1.7 -2.1,2.4c18.8,38.4 56.6,63.2 98,66.4l0,0.6c-22,-1.5 -43.6,-9.3 -61.5,-22.3c-16,-11.6 -28.5,-26.7 -36.9,-44.2c-0.7,0.7 -1.5,1.3 -2.4,1.9c19.2,39.5 58.2,64.9 100.8,67.7l0,0.5c-22.7,-1.3 -45.1,-9.3 -63.6,-22.7c-16.3,-11.8 -29.1,-27.3 -37.6,-45.2c-0.8,0.5 -1.7,1 -2.7,1.4c19.5,40.9 59.9,67.1 103.9,69.6l0,18.9l-155.6,0z"/>
      <path stroke="null" id="svg_6" d="m62.6,53.2c-0.1,0 -0.3,0 -0.4,0.1c-0.7,0.1 -1.5,0.3 -2.2,0.5c0.3,2.5 0.7,5 1.1,7.6c1.9,10.4 5.3,20.1 9.8,29c0.9,-0.3 1.7,-0.6 2.5,-0.9c-4.6,-9 -7.9,-18.5 -9.8,-28.6c-0.3,-2.6 -0.7,-5.1 -1,-7.7z"/>
      <path stroke="null" id="svg_7" d="m59.5,54c-0.9,0.3 -1.8,0.7 -2.6,1.1c0.3,2.7 0.7,5.5 1.2,8.2c1.8,9.9 5,19.2 9.2,27.8c0.6,-0.1 1.2,-0.1 1.8,-0.2c0.3,-0.1 0.7,-0.1 1,-0.2c-4.4,-8.8 -7.5,-18.1 -9.3,-27.9c-0.6,-2.9 -1,-5.9 -1.3,-8.8z"/>
      <path stroke="null" id="svg_8" d="m56.4,55.3c-0.9,0.5 -1.8,1.1 -2.6,1.7c0.3,2.7 0.7,5.4 1.2,8.1c1.7,9.1 4.5,17.8 8.2,25.8c1,0.1 2,0.2 3.1,0.1c-4,-8.4 -6.8,-17.3 -8.6,-26.5c-0.6,-2.9 -1,-6 -1.3,-9.2z"/>
      <path stroke="null" id="svg_9" d="m53.4,57.4c-0.9,0.8 -1.8,1.6 -2.5,2.5c0.3,2.4 0.6,4.8 1.1,7.1c1.5,8 3.8,15.6 6.8,22.8c1.1,0.4 2.3,0.7 3.4,1c-3.4,-7.7 -5.9,-15.9 -7.5,-24.3c-0.6,-3 -1,-6 -1.3,-9.1z"/>
      <path stroke="null" id="svg_10" d="m50.5,60.4c-0.9,1.2 -1.7,2.5 -2.3,3.9c0.2,1.5 0.5,3.1 0.8,4.6c1.2,6.3 2.8,12.3 4.9,18.1c1.2,0.9 2.5,1.7 3.9,2.4c-2.7,-6.8 -4.7,-13.8 -6.1,-21c-0.5,-2.6 -0.9,-5.3 -1.2,-8z"/>
      <path stroke="null" id="svg_11" d="m47.8,65.1c-1.2,3.2 -1.7,6.8 -1,10.4c0,0.2 0.1,0.5 0.1,0.7c0.1,0.2 0.1,0.5 0.2,0.7c1,3.7 3,6.9 5.7,9.3c-1.8,-5.2 -3.2,-10.5 -4.2,-15.9c-0.3,-1.7 -0.5,-3.4 -0.8,-5.2z"/>
     </g>
    </g>
   </svg>
  </g>
  <text font-weight="bold" xml:space="preserve" text-anchor="start" font-family="'Helvetica'" font-size="90" id="svg_31" y="153.3967" x="307.1033" stroke-width="0" stroke="#000" fill="#ffffff">PortalSwap</text>
  <path id="svg_37" d="m476.1033,112.3967" opacity="NaN" stroke-width="0" stroke="#000" fill="#ffffff"/>
 </g>
</svg>